<svg width="32" height="32" xmlns="http://www.w3.org/2000/svg" class="icon">
 <defs>
  <style type="text/css"/>
 </defs>
 <g stroke="null">
  <title>background</title>
  <rect x="-1" y="-1" width="34" height="34" id="canvas_background" fill="none" stroke="null"/>
 </g>
 <g stroke="null">
  <title>Layer 1</title>
  <path stroke="#2c2c2c" stroke-width="2" fill="none" d="m1.16655,16l6.357194,-12.46788l16.952516,0l6.357192,12.46788l-6.357192,12.46788l-16.952516,0l-6.357194,-12.46788z" id="svg_4" transform="rotate(90 15.999999999999998,16.000000000000004) "/>
  <path stroke="null" d="m10.561679,11.354378c-0.270243,0 -0.51359,0.109131 -0.688095,0.283059l-0.00096,-0.00093l-3.786604,3.666119a0.953855,0.923583 0 0 0 -0.337163,0.702221c0,0.261666 0.112388,0.49729 0.292016,0.665947l-0.00064,0.00124l3.842317,3.720375l0.000961,-0.00124a0.954175,0.923893 0 0 0 0.668243,0.264147a0.960579,0.930094 0 0 0 0.96058,-0.930094c0,-0.251745 -0.104383,-0.479618 -0.272484,-0.647035l0.00096,-0.00093l-3.16799,-3.067759l3.158064,-3.057838l-0.000961,-0.00093a0.956737,0.926373 0 0 0 0.292336,-0.666257a0.960579,0.930094 0 0 0 -0.960579,-0.930094l0,0zm15.689462,4.650469c0,-0.282128 -0.13224,-0.531703 -0.337163,-0.702221l-3.786604,-3.666119l-0.00064,0.00093a0.958018,0.927614 0 0 0 -0.688415,-0.283059a0.960579,0.930094 0 0 0 -0.96058,0.930094c0,0.261666 0.112708,0.49729 0.292336,0.666257l-0.00096,0.00093l3.158064,3.057838l-3.168311,3.067759l0.00096,0.00093a0.956737,0.926373 0 0 0 -0.272484,0.647035a0.960579,0.930094 0 0 0 0.96058,0.930094c0.259997,0 0.495339,-0.10107 0.668563,-0.264147l0.00096,0.00124l3.842317,-3.720375l-0.00096,-0.00124a0.954175,0.923893 0 0 0 0.292336,-0.665947zm-7.69456,-7.44075c-0.416251,0 -0.770385,0.256396 -0.903905,0.614482l-5.115725,13.00333a0.960579,0.930094 0 0 0 1.800446,0.649206l5.115725,-13.00333a0.960579,0.930094 0 0 0 -0.896541,-1.263687z" fill="#2c2c2c" class="selected" id="svg_1"/>
 </g>
</svg>