<svg width="128" height="128" xmlns="http://www.w3.org/2000/svg" class="icon">
 <defs>
  <style type="text/css"/>
 </defs>
 <g stroke="null">
  <title>background</title>
  <rect x="-1" y="-1" width="130" height="130" id="canvas_background" fill="none" stroke="null"/>
 </g>
 <g stroke="null">
  <title>Layer 1</title>
  <path stroke="#2c2c2c" fill="none" stroke-width="6" d="m3.249985,63.999997l26.035723,-51.06188l69.428591,0l26.035715,51.06188l-26.035715,51.06188l-69.428591,0l-26.035723,-51.06188z" id="svg_4" transform="rotate(90 64,63.99999618530274) "/>
  <path stroke="null" d="m42.939357,46.007754c-1.046554,0 -1.988947,0.422625 -2.664744,1.096183l-0.003719,-0.003601l-14.664145,14.197552a3.693935,3.576702 0 0 0 -1.305711,2.719446c0,1.013339 0.435237,1.925824 1.130872,2.578972l-0.00248,0.004802l14.879903,14.407664l0.003721,-0.004802a3.695176,3.577903 0 0 0 2.587862,1.022944a3.719975,3.601917 0 0 0 3.719977,-3.601917c0,-0.974918 -0.404238,-1.857387 -1.055233,-2.505732l0.003719,-0.003602l-12.268479,-11.88032l12.23004,-11.841899l-0.003721,-0.003602a3.705096,3.587508 0 0 0 1.132113,-2.580172a3.719975,3.601917 0 0 0 -3.719975,-3.601915l0,-0.000001zm60.759602,18.00958c0,-1.092581 -0.512117,-2.059095 -1.305711,-2.719446l-14.664145,-14.197552l-0.00248,0.003601a3.710056,3.592311 0 0 0 -2.665982,-1.096183a3.719975,3.601917 0 0 0 -3.719977,3.601917c0,1.013339 0.436478,1.925824 1.132113,2.580172l-0.003719,0.003602l12.23004,11.841899l-12.26972,11.88032l0.003719,0.003602a3.705096,3.587508 0 0 0 -1.055233,2.505732a3.719975,3.601917 0 0 0 3.719977,3.601917c1.006873,0 1.918267,-0.391408 2.589103,-1.022944l0.003719,0.004802l14.879903,-14.407664l-0.003719,-0.004802a3.695176,3.577903 0 0 0 1.132112,-2.578972zm-29.798245,-28.815328c-1.611989,0 -2.983421,0.992928 -3.500498,2.379665l-19.81135,50.357187a3.719975,3.601917 0 0 0 6.972474,2.514138l19.811351,-50.357187a3.719975,3.601917 0 0 0 -3.471977,-4.893803z" fill="#2c2c2c" class="selected" id="svg_1"/>
 </g>
</svg>