<svg width="64" height="64" xmlns="http://www.w3.org/2000/svg" class="icon">
 <defs>
  <style type="text/css"/>
 </defs>
 <g stroke="null">
  <title>background</title>
  <rect x="-1" y="-1" width="66" height="66" id="canvas_background" fill="none" stroke="null"/>
 </g>
 <g stroke="null">
  <title>Layer 1</title>
  <path stroke="#2c2c2c" stroke-width="4" fill="none" d="m2.416553,32.000001l12.678621,-24.865613l33.809653,0l12.678617,24.865613l-12.678617,24.865613l-33.809653,0l-12.678621,-24.865613z" id="svg_4" transform="rotate(90 31.999999999999996,32.00000000000001) "/>
  <path stroke="null" d="m21.190278,22.765184c-0.537161,0 -1.02086,0.216919 -1.367723,0.562634l-0.001909,-0.001848l-7.526611,7.287125a1.895972,1.835801 0 0 0 -0.670178,1.3958c0,0.520113 0.223393,0.988461 0.580439,1.3237l-0.001273,0.002465l7.637353,7.394968l0.00191,-0.002465a1.896609,1.836417 0 0 0 1.328262,0.525043a1.909338,1.848742 0 0 0 1.909339,-1.848742c0,-0.500393 -0.207482,-0.953334 -0.541616,-1.286108l0.001909,-0.001849l-6.296997,-6.097768l6.277267,-6.078048l-0.00191,-0.001849a1.901701,1.841347 0 0 0 0.581076,-1.324315a1.909338,1.848742 0 0 0 -1.909338,-1.848742l0,-0.000001zm31.185856,9.243711c0,-0.560785 -0.262852,-1.056864 -0.670178,-1.3958l-7.526611,-7.287125l-0.001273,0.001848a1.904247,1.843812 0 0 0 -1.368358,-0.562634a1.909338,1.848742 0 0 0 -1.909339,1.848742c0,0.520113 0.224029,0.988461 0.581076,1.324315l-0.001909,0.001849l6.277267,6.078048l-6.297634,6.097768l0.001909,0.001849a1.901701,1.841347 0 0 0 -0.541616,1.286108a1.909338,1.848742 0 0 0 1.909339,1.848742c0.516794,0 0.984582,-0.200897 1.328899,-0.525043l0.001909,0.002465l7.637353,-7.394968l-0.001909,-0.002465a1.896609,1.836417 0 0 0 0.581075,-1.3237zm-15.294435,-14.789937c-0.82738,0 -1.531289,0.509636 -1.796688,1.221402l-10.168498,25.846647a1.909338,1.848742 0 0 0 3.578736,1.290422l10.168499,-25.846647a1.909338,1.848742 0 0 0 -1.782049,-2.511824z" fill="#2c2c2c" class="selected" id="svg_1"/>
 </g>
</svg>