<svg width="16" height="16" xmlns="http://www.w3.org/2000/svg" class="icon">
 <defs>
  <style type="text/css"/>
 </defs>
 <g stroke="null">
  <title>background</title>
  <rect x="-1" y="-1" width="18" height="18" id="canvas_background" fill="none" stroke="null"/>
 </g>
 <g stroke="null">
  <title>Layer 1</title>
  <path stroke="#2c2c2c" fill="none" d="m0.635234,8l3.156329,-6.190267l8.416876,0l3.156328,6.190267l-3.156328,6.190267l-8.416876,0l-3.156329,-6.190267z" id="svg_4" transform="rotate(90 7.999999999999999,8.000000000000002) "/>
  <path stroke="null" d="m5.313669,5.70505c-0.13349,0 -0.253695,0.053907 -0.339894,0.139821l-0.000474,-0.000459l-1.870443,1.810928a0.471169,0.456216 0 0 0 -0.166546,0.346871c0,0.129254 0.055515,0.245643 0.144245,0.328954l-0.000316,0.000612l1.897964,1.837729l0.000475,-0.000612a0.471328,0.456369 0 0 0 0.330087,0.130479a0.474491,0.459432 0 0 0 0.474491,-0.459432c0,-0.124353 -0.051561,-0.236914 -0.134597,-0.319612l0.000474,-0.000459l-1.564871,-1.51536l1.559968,-1.51046l-0.000475,-0.000459a0.472593,0.457594 0 0 0 0.144403,-0.329107a0.474491,0.459432 0 0 0 -0.474491,-0.459432l0,0zm7.750019,2.297161c0,-0.139361 -0.065322,-0.262642 -0.166546,-0.346871l-1.870443,-1.810928l-0.000316,0.000459a0.473226,0.458207 0 0 0 -0.340052,-0.139821a0.474491,0.459432 0 0 0 -0.474491,0.459432c0,0.129254 0.055674,0.245643 0.144403,0.329107l-0.000474,0.000459l1.559968,1.51046l-1.565029,1.51536l0.000474,0.000459a0.472593,0.457594 0 0 0 -0.134597,0.319612a0.474491,0.459432 0 0 0 0.474491,0.459432c0.128429,0 0.244679,-0.049925 0.330246,-0.130479l0.000474,0.000612l1.897964,-1.837729l-0.000474,-0.000612a0.471328,0.456369 0 0 0 0.144403,-0.328954zm-3.800831,-3.675457c-0.205613,0 -0.380542,0.12665 -0.446496,0.303531l-2.52698,6.423168a0.474491,0.459432 0 0 0 0.889354,0.320684l2.526981,-6.423168a0.474491,0.459432 0 0 0 -0.442858,-0.624215z" fill="#2c2c2c" class="selected" id="svg_1"/>
 </g>
</svg>