<svg width="1024" height="1024" xmlns="http://www.w3.org/2000/svg" style="vector-effect: non-scaling-stroke;" stroke="null" class="icon">
 <defs style="vector-effect: non-scaling-stroke;" stroke="null">
  <style style="vector-effect: non-scaling-stroke;" stroke="null" type="text/css"/>
 </defs>
 <g stroke="null">
  <title stroke="null">background</title>
  <rect stroke="null" fill="none" id="canvas_background" height="402" width="582" y="-1" x="-1"/>
 </g>
 <g stroke="null">
  <title stroke="null">Layer 1</title>
  <path transform="rotate(90 511.00000000000006,512) " stroke="#2c2c2c" id="svg_4" d="m39.583312,512.000014l202.035752,-396.237319l538.761963,0l202.035688,396.237319l-202.035688,396.23732l-538.761963,0l-202.035752,-396.23732z" stroke-width="36" fill="none"/>
  <path stroke="null" id="svg_1" class="selected" fill="#2c2c2c" d="m352.626026,376.712464c-7.869977,0 -14.956686,3.178097 -20.038603,8.243189l-0.027974,-0.027086l-110.272926,106.764201a27.778035,26.896453 0 0 0 -9.818822,20.449972c0,7.62021 3.272941,14.482011 8.504051,19.393616l-0.018649,0.036115l111.895409,108.344221l0.027974,-0.036115a27.78736,26.905482 0 0 0 19.460477,7.69244a27.973852,27.086055 0 0 0 27.973852,-27.086055c0,-7.331292 -3.039825,-13.967376 -7.935249,-18.842866l0.027974,-0.027086l-92.257765,-89.338839l91.968702,-89.049921l-0.027974,-0.027086a27.861957,26.977711 0 0 0 8.513376,-19.402644a27.973852,27.086055 0 0 0 -27.973852,-27.086055zm456.906254,135.430276c0,-8.216103 -3.851067,-15.484195 -9.818822,-20.449972l-110.272926,-106.764201l-0.018649,0.027086a27.899255,27.013826 0 0 0 -20.047927,-8.243189a27.973852,27.086055 0 0 0 -27.973852,27.086055c0,7.62021 3.282265,14.482011 8.513376,19.402644l-0.027974,0.027086l91.968702,89.049921l-92.267089,89.338839l0.027974,0.027086a27.861957,26.977711 0 0 0 -7.935249,18.842866a27.973852,27.086055 0 0 0 27.973852,27.086055c7.571589,0 14.425183,-2.943351 19.469801,-7.69244l0.027974,0.036115l111.895409,-108.344221l-0.027974,-0.036115a27.78736,26.905482 0 0 0 8.513376,-19.393616zm-224.079881,-216.688442c-12.122003,0 -22.43503,7.466723 -26.323395,17.894854l-148.979413,378.68111a27.973852,27.086055 0 0 0 52.432324,18.906067l148.979413,-378.68111a27.973852,27.086055 0 0 0 -26.108929,-36.80092z"/>
 </g>
</svg>